<svg xmlns="http://www.w3.org/2000/svg" viewBox="0 0 626.48 470.28"><defs><style>.cls-1,.cls-10,.cls-2,.cls-3,.cls-4,.cls-5,.cls-6,.cls-7,.cls-8,.cls-9{fill:none;stroke-miterlimit:10;}.cls-1{stroke:#190061;stroke-width:1.63px;}.cls-2,.cls-3,.cls-4{stroke:#240090;}.cls-2{stroke-width:2.04px;}.cls-3{stroke-width:2.55px;}.cls-4,.cls-5{stroke-width:3.19px;}.cls-5{stroke:#3500d3;}.cls-6{stroke:#7c012a;stroke-width:3.98px;}.cls-7{stroke:#a30439;}.cls-7,.cls-8{stroke-width:4.98px;}.cls-8{stroke:#c4023a;}.cls-10,.cls-9{stroke:#e00036;}.cls-9{stroke-width:6.23px;}.cls-10{stroke-width:7.78px;}</style></defs><title>bird</title><g id="Layer_2" data-name="Layer 2"><g id="Layer_1-2" data-name="Layer 1"><g id="Layer_2-2" data-name="Layer 2"><g id="Layer_1-2-2" data-name="Layer 1-2"><path class="cls-1" d="M319.08,205.8l5.7,8,28.8-8M289.2,268l15.6-15.23-9.37-10.06m21.29-36.87-8.32,7.53,14,.52m-38-8,3,6.14,16.48,1m-10.64,24.6,12.16-22.71L270,213M294.6,239l11.51,12.37L318.79,239l3.93-23.16-15.45-.8"/><line class="cls-1" x1="284.36" y1="205.81" x2="303.83" y2="212.97"/><line class="cls-1" x1="319.08" y1="205.81" x2="353.57" y2="205.81"/><line class="cls-1" x1="316.72" y1="205.81" x2="322.4" y2="213.85"/><line class="cls-1" x1="295.37" y1="242.67" x2="289.17" y2="267.96"/><line class="cls-1" x1="270.01" y1="212.97" x2="293.19" y2="237.59"/><line class="cls-1" x1="307.27" y1="215" x2="294.6" y2="239.03"/><path class="cls-2" d="M321.09,198.39l7.11,10,36-10m-80.5,77.68,19.47-19-11.71-12.6m26.68-46.07-10.41,9.41,17.51.66m-47.55-10.05,3.75,7.66L302,207.33m-13.3,30.78,15.21-28.39-44.2-2.4m30.75,32.58,14.4,15.44,15.85-15.54,4.92-29-19.32-1"/><line class="cls-2" x1="277.69" y1="198.39" x2="302.03" y2="207.33"/><line class="cls-2" x1="321.09" y1="198.39" x2="364.2" y2="198.39"/><line class="cls-2" x1="318.14" y1="198.39" x2="325.24" y2="208.44"/><line class="cls-2" x1="291.46" y1="244.46" x2="283.7" y2="276.07"/><line class="cls-2" x1="259.74" y1="207.33" x2="288.73" y2="238.11"/><line class="cls-2" x1="306.32" y1="209.86" x2="290.49" y2="239.91"/><path class="cls-3" d="M323,189.35l8.89,12.47,45-12.47M276.25,286.46l24.35-23.8L286,246.93m33.36-57.6-13,11.75,21.9.83m-59.46-12.56,4.68,9.6,25.74,1.6M282.53,239l19-35.48-55.25-3m38.44,40.72,18,19.3,19.8-19.42L328.69,205l-24.15-1.24"/><line class="cls-3" x1="268.74" y1="189.35" x2="299.16" y2="200.53"/><line class="cls-3" x1="322.99" y1="189.35" x2="376.87" y2="189.35"/><line class="cls-3" x1="319.3" y1="189.35" x2="328.17" y2="201.91"/><line class="cls-3" x1="285.94" y1="246.93" x2="276.25" y2="286.46"/><line class="cls-3" x1="246.3" y1="200.53" x2="282.53" y2="239"/><line class="cls-3" x1="304.52" y1="203.7" x2="284.74" y2="241.25"/><path class="cls-4" d="M325.71,179l11.12,15.6L393.07,179M267.28,300.39l30.43-29.74L279.4,251m41.7-72-16.27,14.67,27.36,1M257.9,179l5.85,12,32.18,2m-20.79,48.1,23.77-44.36L229.85,193m48,50.9L300.37,268l24.76-24.29,7.68-45.24L302.63,197"/><line class="cls-4" x1="257.9" y1="179.02" x2="295.93" y2="192.98"/><line class="cls-4" x1="325.71" y1="179.02" x2="393.07" y2="179.02"/><line class="cls-4" x1="321.1" y1="179.02" x2="332.19" y2="194.71"/><line class="cls-4" x1="279.4" y1="250.99" x2="267.28" y2="300.39"/><line class="cls-4" x1="229.85" y1="192.98" x2="275.14" y2="241.08"/><line class="cls-4" x1="302.63" y1="196.95" x2="277.89" y2="243.88"/><path class="cls-5" d="M330.07,167.82,344,187.31l70.29-19.49M257.06,319.54l38-37.2-22.89-24.57m52.13-90L304,186.15l34.2,1.27m-92.9-19.6,7.3,15,40.2,2.51M266.86,245.4,296.57,190l-86.32-4.67m60.05,63.6,28.09,30.17,31-30.36,9.6-56.55-37.75-1.92"/><line class="cls-5" x1="245.3" y1="167.82" x2="292.84" y2="185.28"/><line class="cls-5" x1="330.07" y1="167.82" x2="414.26" y2="167.82"/><line class="cls-5" x1="324.31" y1="167.82" x2="338.17" y2="187.43"/><line class="cls-5" x1="272.18" y1="257.79" x2="257.04" y2="319.54"/><line class="cls-5" x1="210.25" y1="185.28" x2="266.86" y2="245.39"/><line class="cls-5" x1="301.22" y1="190.23" x2="270.3" y2="248.9"/><path class="cls-5" d="M327.79,174.83l11.12,15.6,56.23-15.6M269.36,296.21l30.43-29.75-18.31-19.65m41.7-72-16.27,14.67,27.36,1M260,174.83l5.85,12,32.17,2m-20.8,48.09L301,192.54l-69.06-3.74m48,50.9,22.47,24.13,24.77-24.28,7.69-45.24-30.19-1.55"/><line class="cls-5" x1="259.98" y1="174.83" x2="298" y2="188.8"/><line class="cls-5" x1="327.79" y1="174.83" x2="395.14" y2="174.83"/><line class="cls-5" x1="323.18" y1="174.83" x2="334.27" y2="190.52"/><line class="cls-5" x1="281.48" y1="246.81" x2="269.36" y2="296.21"/><line class="cls-5" x1="231.93" y1="188.8" x2="277.22" y2="236.89"/><line class="cls-5" x1="304.71" y1="192.76" x2="279.97" y2="239.7"/><path class="cls-3" d="M331.35,159.66l13.9,19.49,70.29-19.49M258.32,311.4l38-37.2-22.88-24.6m52.12-90L305.26,178l34.2,1.27M246.6,159.66l7.3,14.94,40.2,2.51m-26,60.12,29.72-55.43-86.32-4.67m60,63.6,28.09,30.17,30.93-30.35L340.2,184l-37.73-1.94"/><line class="cls-3" x1="246.59" y1="159.66" x2="294.12" y2="177.12"/><line class="cls-3" x1="331.35" y1="159.66" x2="415.54" y2="159.66"/><line class="cls-3" x1="325.59" y1="159.66" x2="339.45" y2="179.27"/><line class="cls-3" x1="273.47" y1="249.63" x2="258.32" y2="311.38"/><line class="cls-3" x1="211.53" y1="177.12" x2="268.13" y2="237.23"/><line class="cls-3" x1="302.5" y1="182.07" x2="271.58" y2="240.74"/><path class="cls-5" d="M331.35,159.66l13.9,19.49,70.29-19.49M258.32,311.4l38-37.2-22.88-24.6m52.12-90L305.26,178l34.2,1.27M246.6,159.66l7.3,14.94,40.2,2.51m-26,60.12,29.72-55.43-86.32-4.67m60,63.6,28.09,30.17,30.93-30.35L340.2,184l-37.73-1.94"/><line class="cls-5" x1="246.59" y1="159.66" x2="294.12" y2="177.12"/><line class="cls-5" x1="331.35" y1="159.66" x2="415.54" y2="159.66"/><line class="cls-5" x1="325.59" y1="159.66" x2="339.45" y2="179.27"/><line class="cls-5" x1="273.47" y1="249.63" x2="258.32" y2="311.38"/><line class="cls-5" x1="211.53" y1="177.12" x2="268.13" y2="237.23"/><line class="cls-5" x1="302.5" y1="182.07" x2="271.58" y2="240.74"/><path class="cls-5" d="M335.8,140.69l17.4,24.36,87.87-24.36M244.52,330.34l47.54-46.48-28.61-30.7m65.16-112.47-25.42,22.93,42.74,1.59M229.85,140.69l9.14,18.7,50.28,3.13M256.8,237.66l37.13-69.3L186,162.52M261.09,242l35.12,37.71L334.9,241.8l12-70.68-47.17-2.4"/><line class="cls-5" x1="229.85" y1="140.69" x2="289.27" y2="162.52"/><line class="cls-5" x1="335.8" y1="140.69" x2="441.05" y2="140.69"/><line class="cls-5" x1="328.61" y1="140.69" x2="345.93" y2="165.21"/><line class="cls-5" x1="263.45" y1="253.16" x2="244.52" y2="330.34"/><line class="cls-5" x1="186.02" y1="162.52" x2="256.79" y2="237.66"/><line class="cls-5" x1="299.74" y1="168.71" x2="261.09" y2="242.04"/><path class="cls-5" d="M335.8,140.69l17.4,24.36,87.87-24.36M244.52,330.34l47.54-46.48-28.61-30.7m65.16-112.47-25.42,22.93,42.74,1.59M229.85,140.69l9.14,18.7,50.28,3.13M256.8,237.66l37.13-69.3L186,162.52M261.09,242l35.12,37.71L334.9,241.8l12-70.68-47.17-2.4"/><line class="cls-5" x1="229.85" y1="140.69" x2="289.27" y2="162.52"/><line class="cls-5" x1="335.8" y1="140.69" x2="441.05" y2="140.69"/><line class="cls-5" x1="328.61" y1="140.69" x2="345.93" y2="165.21"/><line class="cls-5" x1="263.45" y1="253.16" x2="244.52" y2="330.34"/><line class="cls-5" x1="186.02" y1="162.52" x2="256.79" y2="237.66"/><line class="cls-5" x1="299.74" y1="168.71" x2="261.09" y2="242.04"/><path class="cls-6" d="M341.4,117l21.73,30.45L472.93,117M227.26,354.05l59.4-58.1-35.75-38.4M332.4,117l-31.8,28.66,53.4,2M208.93,117l11.43,23.4,62.84,3.87M242.6,238.2,289,151.57l-134.87-7.3M248,243.67l43.89,47.14,48.37-47.43,15-88.35-59-3"/><line class="cls-6" x1="208.93" y1="116.99" x2="283.2" y2="144.27"/><line class="cls-6" x1="341.37" y1="116.99" x2="472.93" y2="116.99"/><line class="cls-6" x1="332.38" y1="116.99" x2="354.02" y2="147.63"/><line class="cls-6" x1="250.93" y1="257.56" x2="227.26" y2="354.05"/><line class="cls-6" x1="154.15" y1="144.27" x2="242.6" y2="238.2"/><line class="cls-6" x1="296.3" y1="152.01" x2="247.98" y2="243.67"/><path class="cls-6" d="M341.4,117l21.73,30.45L472.93,117M227.26,354.05l59.4-58.1-35.75-38.4M332.4,117l-31.8,28.66,53.4,2M208.93,117l11.43,23.4,62.84,3.87M242.6,238.2,289,151.57l-134.87-7.3M248,243.67l43.89,47.14,48.37-47.43,15-88.35-59-3"/><line class="cls-6" x1="208.93" y1="116.99" x2="283.2" y2="144.27"/><line class="cls-6" x1="341.37" y1="116.99" x2="472.93" y2="116.99"/><line class="cls-6" x1="332.38" y1="116.99" x2="354.02" y2="147.63"/><line class="cls-6" x1="250.93" y1="257.56" x2="227.26" y2="354.05"/><line class="cls-6" x1="154.15" y1="144.27" x2="242.6" y2="238.2"/><line class="cls-6" x1="296.3" y1="152.01" x2="247.98" y2="243.67"/><path class="cls-7" d="M348.33,87.36l27.16,38L512.77,87.35M205.69,383.68,280,311.08l-44.7-48M337.09,87.36l-39.73,35.82,66.79,2.48M182.78,87.36l14.28,29.21,78.55,4.88M224.86,238.87l58-108.29-168.6-9.13M231.6,245.71l54.86,58.92,60.46-59.28,18.77-110.44L292,131.13"/><line class="cls-7" x1="182.78" y1="87.36" x2="275.61" y2="121.45"/><line class="cls-7" x1="348.33" y1="87.36" x2="512.77" y2="87.36"/><line class="cls-7" x1="337.09" y1="87.36" x2="364.15" y2="125.66"/><line class="cls-7" x1="235.28" y1="263.07" x2="205.69" y2="383.68"/><line class="cls-7" x1="114.3" y1="121.45" x2="224.86" y2="238.87"/><line class="cls-7" x1="291.98" y1="131.13" x2="231.59" y2="245.71"/><path class="cls-8" d="M348.93,87.36l27.16,38L513.37,87.35M206.29,383.68l74.29-72.6-44.7-48M337.69,87.36,298,123.18l66.79,2.48M183.38,87.36l14.28,29.21,78.55,4.88M225.46,238.87l58-108.29-168.6-9.13M232.2,245.71l54.86,58.92,60.46-59.28,18.77-110.44-73.7-3.78"/><line class="cls-8" x1="183.38" y1="87.36" x2="276.21" y2="121.45"/><line class="cls-8" x1="348.93" y1="87.36" x2="513.37" y2="87.36"/><line class="cls-8" x1="337.69" y1="87.36" x2="364.75" y2="125.66"/><line class="cls-8" x1="235.88" y1="263.07" x2="206.29" y2="383.68"/><line class="cls-8" x1="114.9" y1="121.45" x2="225.46" y2="238.87"/><line class="cls-8" x1="292.58" y1="131.13" x2="232.19" y2="245.71"/><path class="cls-9" d="M357.6,50.31l33.95,47.58,171.6-47.58M179.33,420.72l92.85-90.78-55.87-60M343.57,50.31,293.92,95.09,377.4,98.2M150.69,50.31l17.86,36.53,98.18,6.1M203.3,239.7l72.53-135.36L65.09,92.94M211.7,248.26l68.59,73.66,75.57-74.12,23.46-138L287.2,105"/><line class="cls-9" x1="150.69" y1="50.31" x2="266.73" y2="92.94"/><line class="cls-9" x1="357.62" y1="50.31" x2="563.18" y2="50.31"/><line class="cls-9" x1="343.57" y1="50.31" x2="377.4" y2="98.2"/><line class="cls-9" x1="216.31" y1="269.96" x2="179.33" y2="420.72"/><line class="cls-9" x1="65.09" y1="92.94" x2="203.3" y2="239.7"/><line class="cls-9" x1="287.2" y1="105.03" x2="211.7" y2="248.26"/><path class="cls-10" d="M368.5,4.49,410.93,64,625.44,4.49m-479.81,463L261.7,354l-69.84-75M350.93,4.49l-62.07,56,104.36,3.89M109.8,4.49l22.32,45.65,122.76,7.63M175.58,241.2,266.26,72,2.83,57.77M186.1,251.93,271.8,344l94.46-92.64L395.59,78.8,280.44,72.89"/><line class="cls-10" x1="109.82" y1="4.49" x2="254.88" y2="57.77"/><line class="cls-10" x1="368.5" y1="4.49" x2="625.44" y2="4.49"/><line class="cls-10" x1="350.93" y1="4.49" x2="393.22" y2="64.35"/><line class="cls-10" x1="191.86" y1="279.05" x2="145.63" y2="467.5"/><line class="cls-10" x1="2.83" y1="57.77" x2="175.58" y2="241.23"/><line class="cls-10" x1="280.46" y1="72.89" x2="186.1" y2="251.93"/><path class="cls-10" d="M368.5,3.89l42.43,59.47L625.44,3.89m-479.81,463L261.7,353.4l-69.84-75M350.93,3.89l-62.07,56,104.36,3.89M109.8,3.89l22.32,45.65,122.76,7.63M175.58,240.6,266.26,71.4,2.83,57.17M186.1,251.33l85.7,92.07,94.46-92.64L395.59,78.2,280.44,72.29"/><line class="cls-10" x1="109.82" y1="3.89" x2="254.88" y2="57.17"/><line class="cls-10" x1="368.5" y1="3.89" x2="625.44" y2="3.89"/><line class="cls-10" x1="350.93" y1="3.89" x2="393.22" y2="63.75"/><line class="cls-10" x1="191.86" y1="278.45" x2="145.63" y2="466.9"/><line class="cls-10" x1="2.83" y1="57.17" x2="175.58" y2="240.63"/><line class="cls-10" x1="280.46" y1="72.29" x2="186.1" y2="251.33"/><path class="cls-10" d="M368.5,3.89l42.43,59.47L625.44,3.89m-479.81,463L261.7,353.4l-69.84-75M350.93,3.89l-62.07,56,104.36,3.89M109.8,3.89l22.32,45.65,122.76,7.63M175.58,240.6,266.26,71.4,2.83,57.17M186.1,251.33l85.7,92.07,94.46-92.64L395.59,78.2,280.44,72.29"/><line class="cls-10" x1="109.82" y1="3.89" x2="254.88" y2="57.17"/><line class="cls-10" x1="368.5" y1="3.89" x2="625.44" y2="3.89"/><line class="cls-10" x1="350.93" y1="3.89" x2="393.22" y2="63.75"/><line class="cls-10" x1="191.86" y1="278.45" x2="145.63" y2="466.9"/><line class="cls-10" x1="2.83" y1="57.17" x2="175.58" y2="240.63"/><line class="cls-10" x1="280.46" y1="72.29" x2="186.1" y2="251.33"/></g></g></g></g></svg>