<?xml version="1.0" encoding="utf-8"?>
<!-- Generator: Adobe Illustrator 22.1.0, SVG Export Plug-In . SVG Version: 6.00 Build 0)  -->
<svg version="1.1" id="Layer_1" xmlns="http://www.w3.org/2000/svg" xmlns:xlink="http://www.w3.org/1999/xlink" x="0px" y="0px"
	 viewBox="0 0 100 100" style="enable-background:new 0 0 100 100;" xml:space="preserve">
<style type="text/css">
	.st0{fill:#3500D3;}
</style>
<path class="st0" d="M10,4c-3.3,0-6,2.7-6,6v60c0,3.3,2.7,6,6,6h28v4H20c-0.1,0-0.1,0-0.2,0c-0.5,0.1-1,0.3-1.4,0.8l-10,12
	c-0.5,0.6-0.6,1.4-0.2,2.1c0.3,0.7,1,1.1,1.8,1.1h80c0.8,0,1.5-0.4,1.8-1.1s0.2-1.5-0.2-2.1l-10-12c-0.4-0.5-1-0.8-1.6-0.8H62v-4h28
	c3.3,0,6-2.7,6-6V10c0-3.3-2.7-6-6-6H10z M10,8h80c1.1,0,2,0.9,2,2v60c0,1.1-0.9,2-2,2H10c-1.1,0-2-0.9-2-2V10C8,8.9,8.9,8,10,8z
	 M12,12v56h76V12H12z M16,16h68v48H16V16z M38.6,22.6l-16,16L21.2,40l1.4,1.4l16,16l2.9-2.9L26.9,40l14.6-14.6L38.6,22.6z
	 M61.4,22.6l-2.9,2.9L73.1,40L58.6,54.6l2.9,2.9l16-16l1.4-1.4l-1.4-1.4L61.4,22.6z M42,76h16v8H42V76z M20.9,84H38v4h24v-4h17.1
	l6.7,8H14.3L20.9,84z"/>
</svg>
