<svg xmlns="http://www.w3.org/2000/svg" viewBox="0 0 961.59 716.52"><defs><style>.cls-1{fill:none;stroke:#e00036;stroke-miterlimit:10;stroke-width:3px;}</style></defs><title>Asset 1</title><g id="Layer_2" data-name="Layer 2"><g id="Layer_1-2" data-name="Layer 1"><path class="cls-1" d="M565,1.45l65.4,91.7,330.8-91.7m-739.9,714,179-175-107.7-115.6M537.89,1.45l-95.7,86.3,160.9,6m-437-92.3,34.4,70.4,189.3,11.8m-122.3,282.9,139.8-260.9-406.2-22m282.6,299.4,132.2,142,145.7-142.9,45.2-266.1L429.19,107"/><line class="cls-1" x1="166.09" y1="1.45" x2="389.79" y2="83.65"/><line class="cls-1" x1="537.89" y1="1.45" x2="603.09" y2="93.75"/><line class="cls-1" x1="292.59" y1="424.85" x2="221.29" y2="715.45"/><line class="cls-1" x1="1.09" y1="83.65" x2="267.49" y2="366.55"/><line class="cls-1" x1="429.19" y1="106.95" x2="283.69" y2="383.05"/></g></g></svg>