<svg xmlns="http://www.w3.org/2000/svg" viewBox="0 0 3610.08 618.84"><defs><style>.cls-1{fill:none;stroke:#e00036;stroke-miterlimit:10;stroke-width:20.17px;}</style></defs><title>FLNLOGO</title><g id="Layer_2" data-name="Layer 2"><g id="Layer_1-2" data-name="Layer 1"><path class="cls-1" d="M69.68,601.16V279.24H10.08V190.41h59.6V157.76q0-70.23,41.38-108.95T227.23,10.08q27.33,0,60,8l.38,94.14q-11.77-3.4-31.51-3.41Q198,108.79,198,158.9v31.51h80.1v88.83H198V601.16Z"/><path class="cls-1" d="M571.55,306.19l-42.13-3q-60.37,0-77.45,38v260H324V190.41H444l4.17,52.77q32.26-60.37,90-60.37,20.49,0,35.68,4.56Z"/><path class="cls-1" d="M809.2,608.76q-94.53,0-153-56.38T597.75,405.66V395q0-63,23.35-111.23t68.14-74.6Q734,182.82,795.53,182.81q86.57,0,136.67,53.72T982.31,386.3V436H728q6.84,34.55,30,54.28t60,19.74q60.74,0,94.91-42.51l58.46,69.09q-23.91,33-67.76,52.58T809.2,608.76ZM794.77,281.52q-56.17,0-66.81,74.4H857v-9.87q.76-30.75-15.56-47.64T794.77,281.52Z"/><path class="cls-1" d="M1232.49,608.76q-94.53,0-153-56.38T1021,405.66V395q0-63,23.35-111.23t68.14-74.6q44.79-26.38,106.3-26.39,86.55,0,136.67,53.72T1405.6,386.3V436H1151.25q6.82,34.55,30,54.28t60,19.74q60.73,0,94.91-42.51l58.46,69.09q-23.92,33-67.77,52.58T1232.49,608.76Zm-14.43-327.24q-56.19,0-66.81,74.4h129.07v-9.87q.75-30.75-15.56-47.64T1218.06,281.52Z"/><path class="cls-1" d="M1592,601.16H1463.68V18.06H1592Z"/><path class="cls-1" d="M1902.15,601.16q-6.83-12.52-12.15-36.82-35.3,44.42-98.7,44.42-58.08,0-98.7-35.12T1652,485.38q0-66.81,49.35-101t143.5-34.17h39.48V328.48q0-56.84-49-56.83-45.55,0-45.56,45H1661.85q0-59.52,50.68-96.68t129.26-37.17q78.59,0,124.14,38.35t46.69,105.15V508.16q.77,56.57,17.47,86.55v6.45Zm-80.1-83.51q23.91,0,39.67-10.25t22.59-23.16V418.56H1847.1q-66.81,0-66.81,60,0,17.47,11.77,28.29T1822.05,517.65Z"/><path class="cls-1" d="M2200.92,190.41l4.17,48.21q42.52-55.8,117.31-55.81,64.16,0,95.86,38.35t32.83,115.4v264.6H2322.78V341.88q0-31.12-12.53-45.75t-45.55-14.61q-37.59,0-55.81,29.61v290H2081V190.41Z"/><path class="cls-1" d="M2695.57,510.05q27,0,41.76-14.61t14.43-40.81h120q0,67.58-48.4,110.85t-124.71,43.28q-89.59,0-141.22-56.19t-51.63-155.65v-5.31q0-62.25,23-109.9T2595,208.44q43.28-25.62,102.5-25.63,80.1,0,127.18,44.42t47.07,120.34h-120q0-31.89-15.57-49t-41.76-17.08q-49.72,0-58.08,63.4-2.66,20.11-2.66,55.42,0,61.89,14.81,85.8T2695.57,510.05Z"/><path class="cls-1" d="M3124.55,608.76q-94.53,0-153-56.38T2913.1,405.66V395q0-63,23.35-111.23t68.14-74.6q44.79-26.38,106.3-26.39,86.55,0,136.66,53.72t50.11,149.77V436H3043.31q6.84,34.55,30,54.28t60,19.74q60.73,0,94.91-42.51l58.46,69.09q-23.91,33-67.76,52.58T3124.55,608.76Zm-14.42-327.24q-56.19,0-66.82,74.4h129.08v-9.87q.75-30.75-15.57-47.64T3110.13,281.52Z"/><path class="cls-1" d="M3597.57,306.19l-42.14-3q-60.36,0-77.44,38v260H3350.05V190.41h120l4.18,52.77q32.26-60.37,90-60.37,20.51,0,35.69,4.56Z"/></g></g></svg>