<svg xmlns="http://www.w3.org/2000/svg" viewBox="0 0 966.07 724.29"><defs><style>.cls-1{fill:none;stroke:#e00036;stroke-miterlimit:10;stroke-width:12px;}</style></defs><title>Asset 2</title><g id="Layer_2" data-name="Layer 2"><g id="Layer_1-2" data-name="Layer 1"><path class="cls-1" d="M568.27,6l65.4,91.7L964.47,6M224.57,720l179-175L295.87,429.4M541.17,6l-95.7,86.3,160.9,6M169.37,6l34.4,70.4,189.3,11.8M270.77,371.1l139.8-260.9L4.37,88.2M287,387.6l132.2,142,145.7-142.9,45.2-266.1-177.6-9.1"/><line class="cls-1" x1="169.37" y1="6" x2="393.07" y2="88.2"/><line class="cls-1" x1="568.27" y1="6" x2="964.47" y2="6"/><line class="cls-1" x1="541.17" y1="6" x2="606.37" y2="98.3"/><line class="cls-1" x1="295.87" y1="429.4" x2="224.57" y2="720"/><line class="cls-1" x1="4.37" y1="88.2" x2="270.77" y2="371.1"/><line class="cls-1" x1="432.47" y1="111.5" x2="286.97" y2="387.6"/></g></g></svg>