<svg xmlns="http://www.w3.org/2000/svg" viewBox="0 0 4230.3 600.89"><defs><style>.cls-1{isolation:isolate;}.cls-2,.cls-3{fill:none;stroke-miterlimit:10;}.cls-2{stroke:#e00036;stroke-width:16.21px;}.cls-3{stroke:#c4023a;stroke-width:9.82px;}</style></defs><title>freelancer</title><g id="Layer_2" data-name="Layer 2"><g id="Layer_1-2" data-name="Layer 1"><g class="cls-1"><path class="cls-2" d="M842.76,573.93V265.76H785.7v-85h57.06V149.47q0-67.23,39.61-104.3T993.57,8.11q26.16,0,57.42,7.63l.36,90.12q-11.26-3.27-30.16-3.27-55.61,0-55.6,48v30.16h76.68v85H965.59V573.93Z"/><path class="cls-2" d="M1323.18,291.56l-40.34-2.9q-57.78,0-74.13,36.34V573.93H1086.24V180.72h114.84l4,50.52q30.89-57.78,86.13-57.78,19.62,0,34.16,4.36Z"/><path class="cls-2" d="M1550.67,581.2q-90.48,0-146.45-54t-56-140.45V376.6q0-60.32,22.34-106.48t65.24-71.41q42.87-25.25,101.75-25.25,82.86,0,130.83,51.42t48,143.36v47.61H1472.9q6.54,33.07,28.71,52t57.42,18.9q58.14,0,90.85-40.7l56,66.14q-22.9,31.62-64.87,50.33T1550.67,581.2Zm-13.81-313.26q-53.77,0-64,71.23h123.56v-9.45q.72-29.43-14.9-45.61T1536.86,267.94Z"/><path class="cls-2" d="M1955.87,581.2q-90.48,0-146.45-54t-56-140.45V376.6q0-60.32,22.35-106.48T1841,198.71q42.88-25.25,101.76-25.25,82.86,0,130.82,51.42t48,143.36v47.61H1878.1q6.54,33.07,28.71,52t57.42,18.9q58.14,0,90.85-40.7l56,66.14q-22.9,31.62-64.87,50.33T1955.87,581.2Zm-13.81-313.26q-53.79,0-64,71.23h123.56v-9.45q.72-29.43-14.9-45.61T1942.06,267.94Z"/><path class="cls-2" d="M2300,573.93H2177.18V15.74H2300Z"/><path class="cls-2" d="M2596.92,573.93q-6.54-12-11.63-35.25-33.79,42.52-94.48,42.52-55.61,0-94.49-33.62t-38.88-84.49q0-64,47.24-96.66t137.37-32.71h37.79V312.9q0-54.4-46.88-54.41-43.61,0-43.61,43.1H2366.88q0-57,48.52-92.56t123.74-35.57q75.22,0,118.83,36.7t44.7,100.66V484.9q.72,54.15,16.72,82.85v6.18ZM2520.24,494q22.91,0,38-9.81T2579.84,462V399.13h-35.61q-64,0-64,57.42,0,16.72,11.26,27.07T2520.24,494Z"/><path class="cls-2" d="M2882.92,180.72l4,46.16q40.7-53.43,112.29-53.42,61.41,0,91.76,36.7t31.44,110.48V573.93H2999.57V325.72q0-29.79-12-43.79t-43.61-14q-36,0-53.42,28.35V573.93H2768.08V180.72Z"/><path class="cls-2" d="M3356.44,486.71q25.8,0,40-14t13.8-39.07h114.84q0,64.69-46.33,106.12T3359.35,581.2q-85.77,0-135.19-53.79t-49.42-149v-5.09q0-59.59,22-105.21T3260.14,198q41.43-24.54,98.12-24.53,76.66,0,121.74,42.51t45.06,115.2H3410.22q0-30.53-14.89-46.87t-40-16.36q-47.61,0-55.6,60.69-2.55,19.26-2.54,53.06,0,59.24,14.17,82.13T3356.44,486.71Z"/><path class="cls-2" d="M3767.09,581.2q-90.49,0-146.45-54t-56-140.45V376.6q0-60.32,22.35-106.48t65.23-71.41q42.89-25.25,101.76-25.25,82.84,0,130.82,51.42t48,143.36v47.61H3689.32q6.54,33.07,28.71,52t57.42,18.9q58.14,0,90.85-40.7l56,66.14q-22.89,31.62-64.86,50.33T3767.09,581.2Zm-13.81-313.26q-53.79,0-64,71.23h123.56v-9.45q.72-29.43-14.9-45.61T3753.28,267.94Z"/><path class="cls-2" d="M4219.89,291.56l-40.33-2.9q-57.78,0-74.14,36.34V573.93H3983V180.72h114.84l4,50.52q30.89-57.78,86.13-57.78,19.62,0,34.16,4.36Z"/></g><path class="cls-3" d="M465,13.22l53.58,75,270.61-75M183.71,597.38,330.13,454.27,242,359.65M442.73,13.22l-78.3,70.61,131.65,4.85M138.53,13.22l28.15,57.6L321.5,80.4M221.56,311.86,335.93,98.37,3.57,80.4M234.8,325.47,342.91,441.61,462.13,324.76l37-217.75L353.91,99.56"/><line class="cls-3" x1="138.53" y1="13.22" x2="321.62" y2="80.52"/><line class="cls-3" x1="464.97" y1="13.22" x2="789.05" y2="13.22"/><line class="cls-3" x1="442.73" y1="13.22" x2="496.08" y2="88.79"/><line class="cls-3" x1="242.02" y1="359.65" x2="183.71" y2="597.38"/><line class="cls-3" x1="3.57" y1="80.52" x2="221.56" y2="311.86"/><line class="cls-3" x1="353.91" y1="99.56" x2="234.8" y2="325.47"/></g></g></svg>