<svg xmlns="http://www.w3.org/2000/svg" viewBox="0 0 1044.13 783.8"><defs><style>.cls-1,.cls-10,.cls-2,.cls-3,.cls-4,.cls-5,.cls-6,.cls-7,.cls-8,.cls-9{fill:none;stroke-miterlimit:10;}.cls-1{stroke:#190061;stroke-width:2.72px;}.cls-2,.cls-3,.cls-4{stroke:#240090;}.cls-2{stroke-width:3.4px;}.cls-3{stroke-width:4.25px;}.cls-4,.cls-5{stroke-width:5.31px;}.cls-5{stroke:#3500d3;}.cls-6{stroke:#7c012a;stroke-width:6.64px;}.cls-7{stroke:#a30439;}.cls-7,.cls-8{stroke-width:8.3px;}.cls-8{stroke:#c4023a;}.cls-10,.cls-9{stroke:#e00036;}.cls-9{stroke-width:10.38px;}.cls-10{stroke-width:12.97px;}</style></defs><title>bird</title><g id="Layer_2" data-name="Layer 2"><g id="Layer_1-2" data-name="Layer 1"><path class="cls-1" d="M531.8,343l9.5,13.31,48-13.31M482,446.6l26-25.39-15.62-16.77M527.87,343,514,355.54l23.34.87M473.94,343l5,10.22,27.46,1.7m-17.74,41,20.28-37.85L450,354.94m41,43.44L510.18,419l21.13-20.72,6.56-38.6-25.76-1.33"/><line class="cls-1" x1="473.94" y1="343.02" x2="506.39" y2="354.94"/><line class="cls-1" x1="531.8" y1="343.02" x2="589.28" y2="343.02"/><line class="cls-1" x1="527.87" y1="343.02" x2="537.33" y2="356.41"/><line class="cls-1" x1="492.29" y1="404.44" x2="481.95" y2="446.6"/><line class="cls-1" x1="450.01" y1="354.94" x2="488.65" y2="395.98"/><line class="cls-1" x1="512.11" y1="358.32" x2="491" y2="398.38"/><path class="cls-2" d="M535.15,330.65,547,347.28l60-16.63M472.83,460.12l32.46-31.73-19.53-21m44.48-76.77L512.89,346.3l29.17,1.09m-79.24-16.74,6.24,12.76,34.32,2.14m-22.17,51.3,25.35-47.32-73.66-4m51.25,54.29,24,25.74,26.41-25.9,8.21-48.25-32.2-1.66"/><line class="cls-2" x1="462.82" y1="330.65" x2="503.38" y2="345.55"/><line class="cls-2" x1="535.15" y1="330.65" x2="607" y2="330.65"/><line class="cls-2" x1="530.24" y1="330.65" x2="542.06" y2="347.39"/><line class="cls-2" x1="485.76" y1="407.42" x2="472.83" y2="460.12"/><line class="cls-2" x1="432.9" y1="345.55" x2="481.21" y2="396.85"/><line class="cls-2" x1="510.54" y1="349.77" x2="484.15" y2="399.84"/><path class="cls-3" d="M538.31,315.58l14.83,20.79,75-20.79M460.41,477.42,501,437.76l-24.41-26.21m55.6-96-21.69,19.57L547,336.51M447.9,315.58l7.8,16,42.9,2.67m-27.72,64.12,31.7-59.14-92.08-5m64.06,67.86,30,32.18,33-32.38,10.25-60.31-40.25-2.07"/><line class="cls-3" x1="447.9" y1="315.58" x2="498.6" y2="334.21"/><line class="cls-3" x1="538.31" y1="315.58" x2="628.12" y2="315.58"/><line class="cls-3" x1="532.17" y1="315.58" x2="546.95" y2="336.51"/><line class="cls-3" x1="476.57" y1="411.55" x2="460.41" y2="477.42"/><line class="cls-3" x1="410.5" y1="334.21" x2="470.88" y2="398.33"/><line class="cls-3" x1="507.54" y1="339.49" x2="474.56" y2="402.07"/><path class="cls-4" d="M542.85,298.36l18.53,26,93.73-26M445.47,500.65l50.71-49.58-30.51-32.76m69.5-119.95-27.12,24.45,45.6,1.7M429.83,298.36l9.75,19.94,53.63,3.33m-34.65,80.16,39.62-73.93-115.1-6.23m80.07,84.83,37.46,40.23,41.27-40.48,12.81-75.39-50.31-2.58"/><line class="cls-4" x1="429.83" y1="298.36" x2="493.21" y2="321.63"/><line class="cls-4" x1="542.85" y1="298.36" x2="655.11" y2="298.36"/><line class="cls-4" x1="535.17" y1="298.36" x2="553.65" y2="324.51"/><line class="cls-4" x1="465.67" y1="418.31" x2="445.47" y2="500.65"/><line class="cls-4" x1="383.08" y1="321.63" x2="458.56" y2="401.79"/><line class="cls-4" x1="504.38" y1="328.24" x2="463.15" y2="406.46"/><path class="cls-5" d="M550.11,279.69l23.18,32.48,117.15-32.48m-262,252.87,63.39-62-38.15-40.94m86.88-149.95-33.9,30.57,57,2.12M408.84,279.69,421,304.62l67,4.17M444.76,409l49.52-92.41-143.87-7.78m100.09,106,46.82,50.28,51.59-50.6,16-94.24L502,317.05"/><line class="cls-5" x1="408.84" y1="279.69" x2="488.06" y2="308.79"/><line class="cls-5" x1="550.11" y1="279.69" x2="690.44" y2="279.69"/><line class="cls-5" x1="540.52" y1="279.69" x2="563.61" y2="312.38"/><line class="cls-5" x1="453.64" y1="429.64" x2="428.4" y2="532.56"/><line class="cls-5" x1="350.41" y1="308.79" x2="444.76" y2="408.98"/><line class="cls-5" x1="502.04" y1="317.05" x2="450.5" y2="414.83"/><path class="cls-5" d="M546.31,291.38l18.54,26,93.72-26M448.94,493.67l50.71-49.58-30.51-32.75m69.5-120-27.12,24.45,45.59,1.7M433.3,291.38l9.75,19.94,53.62,3.34M462,394.81l39.61-73.92-115.09-6.23m80.07,84.83,37.45,40.22,41.28-40.47,12.81-75.4-50.31-2.58"/><line class="cls-5" x1="433.3" y1="291.38" x2="496.67" y2="314.66"/><line class="cls-5" x1="546.31" y1="291.38" x2="658.57" y2="291.38"/><line class="cls-5" x1="538.64" y1="291.38" x2="557.11" y2="317.53"/><line class="cls-5" x1="469.14" y1="411.34" x2="448.94" y2="493.67"/><line class="cls-5" x1="386.55" y1="314.66" x2="462.03" y2="394.81"/><line class="cls-5" x1="507.85" y1="321.26" x2="466.62" y2="399.49"/><path class="cls-3" d="M552.25,266.09l23.17,32.48,117.15-32.48M430.54,519l63.38-62L455.78,416m86.87-150-33.89,30.57,57,2.12M411,266.09,423.17,291l67,4.17M446.89,395.38,496.41,303l-143.86-7.79m100.08,106,46.82,50.28L551,400.91l16-94.24-62.89-3.22"/><line class="cls-3" x1="410.98" y1="266.09" x2="490.2" y2="295.19"/><line class="cls-3" x1="552.25" y1="266.09" x2="692.57" y2="266.09"/><line class="cls-3" x1="542.65" y1="266.09" x2="565.75" y2="298.78"/><line class="cls-3" x1="455.78" y1="416.04" x2="430.54" y2="518.96"/><line class="cls-3" x1="352.55" y1="295.19" x2="446.89" y2="395.38"/><line class="cls-3" x1="504.17" y1="303.45" x2="452.63" y2="401.23"/><path class="cls-5" d="M552.25,266.09l23.17,32.48,117.15-32.48M430.54,519l63.38-62L455.78,416m86.87-150-33.89,30.57,57,2.12M411,266.09,423.17,291l67,4.17M446.89,395.38,496.41,303l-143.86-7.79m100.08,106,46.82,50.28L551,400.91l16-94.24-62.89-3.22"/><line class="cls-5" x1="410.98" y1="266.09" x2="490.2" y2="295.19"/><line class="cls-5" x1="552.25" y1="266.09" x2="692.57" y2="266.09"/><line class="cls-5" x1="542.65" y1="266.09" x2="565.75" y2="298.78"/><line class="cls-5" x1="455.78" y1="416.04" x2="430.54" y2="518.96"/><line class="cls-5" x1="352.55" y1="295.19" x2="446.89" y2="395.38"/><line class="cls-5" x1="504.17" y1="303.45" x2="452.63" y2="401.23"/><path class="cls-5" d="M559.67,234.48l29,40.6,146.44-40.6M407.53,550.56l79.23-77.46-47.68-51.18m108.6-187.44-42.37,38.21,71.24,2.66M383.08,234.48l15.24,31.17,83.79,5.21M428,396.1l61.89-115.51L310,270.86M435.15,403.4l58.53,62.85L558.16,403l20-117.8-78.61-4"/><line class="cls-5" x1="383.08" y1="234.48" x2="482.11" y2="270.86"/><line class="cls-5" x1="559.67" y1="234.48" x2="735.08" y2="234.48"/><line class="cls-5" x1="547.68" y1="234.48" x2="576.55" y2="275.35"/><line class="cls-5" x1="439.08" y1="421.92" x2="407.53" y2="550.56"/><line class="cls-5" x1="310.04" y1="270.86" x2="427.98" y2="396.1"/><line class="cls-5" x1="499.57" y1="281.18" x2="435.15" y2="403.4"/><path class="cls-5" d="M559.67,234.48l29,40.6,146.44-40.6M407.53,550.56l79.23-77.46-47.68-51.18m108.6-187.44-42.37,38.21,71.24,2.66M383.08,234.48l15.24,31.17,83.79,5.21M428,396.1l61.89-115.51L310,270.86M435.15,403.4l58.53,62.85L558.16,403l20-117.8-78.61-4"/><line class="cls-5" x1="383.08" y1="234.48" x2="482.11" y2="270.86"/><line class="cls-5" x1="559.67" y1="234.48" x2="735.08" y2="234.48"/><line class="cls-5" x1="547.68" y1="234.48" x2="576.55" y2="275.35"/><line class="cls-5" x1="439.08" y1="421.92" x2="407.53" y2="550.56"/><line class="cls-5" x1="310.04" y1="270.86" x2="427.98" y2="396.1"/><line class="cls-5" x1="499.57" y1="281.18" x2="435.15" y2="403.4"/><path class="cls-6" d="M569,195l36.21,50.75L788.21,195M378.77,590.07l99-96.82-59.59-64M554,195l-53,47.76,89,3.32M348.21,195l19.05,39L472,240.44M404.33,397,481.7,252.61,256.91,240.44M413.3,406.12l73.15,78.56,80.61-79.05,25-147.25-98.26-5"/><line class="cls-6" x1="348.21" y1="194.97" x2="472" y2="240.44"/><line class="cls-6" x1="568.95" y1="194.97" x2="788.21" y2="194.97"/><line class="cls-6" x1="553.96" y1="194.97" x2="590.04" y2="246.05"/><line class="cls-6" x1="418.22" y1="429.27" x2="378.77" y2="590.07"/><line class="cls-6" x1="256.91" y1="240.44" x2="404.33" y2="396.99"/><line class="cls-6" x1="493.83" y1="253.34" x2="413.3" y2="406.12"/><path class="cls-6" d="M569,195l36.21,50.75L788.21,195M378.77,590.07l99-96.82-59.59-64M554,195l-53,47.76,89,3.32M348.21,195l19.05,39L472,240.44M404.33,397,481.7,252.61,256.91,240.44M413.3,406.12l73.15,78.56,80.61-79.05,25-147.25-98.26-5"/><line class="cls-6" x1="348.21" y1="194.97" x2="472" y2="240.44"/><line class="cls-6" x1="568.95" y1="194.97" x2="788.21" y2="194.97"/><line class="cls-6" x1="553.96" y1="194.97" x2="590.04" y2="246.05"/><line class="cls-6" x1="418.22" y1="429.27" x2="378.77" y2="590.07"/><line class="cls-6" x1="256.91" y1="240.44" x2="404.33" y2="396.99"/><line class="cls-6" x1="493.83" y1="253.34" x2="413.3" y2="406.12"/><path class="cls-7" d="M580.55,145.59,625.81,209l228.81-63.43M342.82,639.46l123.81-121-74.5-80M561.81,145.59l-66.21,59.7,111.31,4.14M304.63,145.59l23.81,48.69,130.91,8.14M374.77,398.11l96.72-180.48-281-15.21M386,409.52l91.44,98.2,100.76-98.81,31.28-184.07-122.83-6.29"/><line class="cls-7" x1="304.63" y1="145.59" x2="459.35" y2="202.42"/><line class="cls-7" x1="580.55" y1="145.59" x2="854.62" y2="145.59"/><line class="cls-7" x1="561.81" y1="145.59" x2="606.91" y2="209.43"/><line class="cls-7" x1="392.13" y1="438.45" x2="342.82" y2="639.46"/><line class="cls-7" x1="190.5" y1="202.42" x2="374.77" y2="398.11"/><line class="cls-7" x1="486.64" y1="218.55" x2="385.99" y2="409.52"/><path class="cls-8" d="M581.55,145.59,626.81,209l228.81-63.43M343.82,639.46l123.81-121-74.5-80M562.81,145.59l-66.21,59.7,111.31,4.14M305.63,145.59l23.81,48.69,130.91,8.14M375.77,398.11l96.72-180.48-281-15.21M387,409.52l91.44,98.2,100.76-98.81,31.28-184.07-122.83-6.29"/><line class="cls-8" x1="305.63" y1="145.59" x2="460.35" y2="202.42"/><line class="cls-8" x1="581.55" y1="145.59" x2="855.62" y2="145.59"/><line class="cls-8" x1="562.81" y1="145.59" x2="607.91" y2="209.43"/><line class="cls-8" x1="393.13" y1="438.45" x2="343.82" y2="639.46"/><line class="cls-8" x1="191.5" y1="202.42" x2="375.77" y2="398.11"/><line class="cls-8" x1="487.64" y1="218.55" x2="386.99" y2="409.52"/><path class="cls-9" d="M596,83.85l56.58,79.3,286-79.3M298.89,701.2,453.64,549.9l-93.12-100M572.62,83.85l-82.75,74.63L629,163.66M251.15,83.85l29.76,60.87,163.64,10.17M338.83,399.5,459.72,173.9l-351.23-19M352.84,413.77,467.15,536.52,593.1,413l39.1-230.08-153.53-7.87"/><line class="cls-9" x1="251.15" y1="83.85" x2="444.55" y2="154.89"/><line class="cls-9" x1="596.04" y1="83.85" x2="938.63" y2="83.85"/><line class="cls-9" x1="572.62" y1="83.85" x2="629" y2="163.66"/><line class="cls-9" x1="360.52" y1="449.93" x2="298.89" y2="701.2"/><line class="cls-9" x1="108.49" y1="154.89" x2="338.83" y2="399.5"/><line class="cls-9" x1="478.67" y1="175.05" x2="352.84" y2="413.77"/><path class="cls-10" d="M614.16,7.48l70.72,99.12L1042.4,7.48M242.72,779.16,436.16,590l-116.4-125M584.88,7.48,481.44,100.76l173.92,6.48M183,7.48l37.2,76.08L424.8,96.28M292.64,402,443.76,120,4.72,96.28m305.44,323.6L453,573.32l157.44-154.4,48.88-287.6-191.92-9.84"/><line class="cls-10" x1="183.04" y1="7.48" x2="424.8" y2="96.28"/><line class="cls-10" x1="614.16" y1="7.48" x2="1042.4" y2="7.48"/><line class="cls-10" x1="584.88" y1="7.48" x2="655.36" y2="107.24"/><line class="cls-10" x1="319.76" y1="465.08" x2="242.72" y2="779.16"/><line class="cls-10" x1="4.72" y1="96.28" x2="292.64" y2="402.04"/><line class="cls-10" x1="467.44" y1="121.48" x2="310.16" y2="419.88"/><path class="cls-10" d="M614.16,6.48l70.72,99.12L1042.4,6.48M242.72,778.16,436.16,589l-116.4-125M584.88,6.48,481.44,99.76l173.92,6.48M183,6.48l37.2,76.08L424.8,95.28M292.64,401,443.76,119,4.72,95.28m305.44,323.6L453,572.32l157.44-154.4,48.88-287.6-191.92-9.84"/><line class="cls-10" x1="183.04" y1="6.48" x2="424.8" y2="95.28"/><line class="cls-10" x1="614.16" y1="6.48" x2="1042.4" y2="6.48"/><line class="cls-10" x1="584.88" y1="6.48" x2="655.36" y2="106.24"/><line class="cls-10" x1="319.76" y1="464.08" x2="242.72" y2="778.16"/><line class="cls-10" x1="4.72" y1="95.28" x2="292.64" y2="401.04"/><line class="cls-10" x1="467.44" y1="120.48" x2="310.16" y2="418.88"/><path class="cls-10" d="M614.16,6.48l70.72,99.12L1042.4,6.48M242.72,778.16,436.16,589l-116.4-125M584.88,6.48,481.44,99.76l173.92,6.48M183,6.48l37.2,76.08L424.8,95.28M292.64,401,443.76,119,4.72,95.28m305.44,323.6L453,572.32l157.44-154.4,48.88-287.6-191.92-9.84"/><line class="cls-10" x1="183.04" y1="6.48" x2="424.8" y2="95.28"/><line class="cls-10" x1="614.16" y1="6.48" x2="1042.4" y2="6.48"/><line class="cls-10" x1="584.88" y1="6.48" x2="655.36" y2="106.24"/><line class="cls-10" x1="319.76" y1="464.08" x2="242.72" y2="778.16"/><line class="cls-10" x1="4.72" y1="95.28" x2="292.64" y2="401.04"/><line class="cls-10" x1="467.44" y1="120.48" x2="310.16" y2="418.88"/></g></g></svg>