<svg xmlns="http://www.w3.org/2000/svg" viewBox="0 0 75.06 75.06"><defs><style>.cls-1{fill:#fff;}</style></defs><title>Freelancer</title><g id="Layer_2" data-name="Layer 2"><g id="Layer_1-2" data-name="Layer 1"><path class="cls-1" d="M4.9,0A4.92,4.92,0,0,0,0,4.9v49a4.92,4.92,0,0,0,4.9,4.89H27.74V62H12.9a1.6,1.6,0,0,0-1.12.61L3.62,72.41A1.63,1.63,0,0,0,4.9,75.06H70.17a1.63,1.63,0,0,0,1.27-2.65l-8.16-9.79A1.61,1.61,0,0,0,62,62H47.32V58.74H70.17a4.92,4.92,0,0,0,4.89-4.89V4.9A4.92,4.92,0,0,0,70.17,0Zm0,3.26H70.17A1.63,1.63,0,0,1,71.8,4.9v49a1.63,1.63,0,0,1-1.63,1.63H4.9a1.63,1.63,0,0,1-1.64-1.63V4.9A1.63,1.63,0,0,1,4.9,3.26ZM6.53,6.53V52.22h62V6.53ZM9.79,9.79H65.27V49H9.79ZM28.2,15.15l-13,13.05L14,29.37l1.13,1.18L28.2,43.6l2.35-2.35L18.66,29.37,30.55,17.49Zm18.66,0-2.34,2.34L56.4,29.37,44.52,41.25l2.34,2.35,13.06-13L61,29.37,59.92,28.2ZM31,58.74H44.06v6.53H31ZM13.82,65.27H27.74v3.27H47.32V65.27H61.24L66.7,71.8H8.36Z"/></g></g></svg>