<svg xmlns="http://www.w3.org/2000/svg" viewBox="0 0 5718.71 1134.05"><defs><style>.cls-1,.cls-2{fill:none;stroke:#e00036;stroke-miterlimit:10;}.cls-1{stroke-width:16.21px;}.cls-2{font-size:973px;stroke-width:38px;font-family:Roboto-Black, Roboto;}.cls-3{letter-spacing:-0.01em;}</style></defs><title>Asset 3</title><g id="Layer_2" data-name="Layer 2"><g id="Layer_1-2" data-name="Layer 1"><path class="cls-1" d="M767.72,15.38l88.35,123.88L1303,15.38M303.39,980,545.21,743.55,399.71,587.38m331.4-572L601.82,132l217.37,8.1M228.81,15.38l46.48,95.11L531,126.43M365.8,508.62,554.67,156.15,5.9,126.43M387.69,530.91l178.6,191.84L763.12,529.69,824.19,170.2,584.26,157.9"/><line class="cls-1" x1="228.81" y1="15.38" x2="531.03" y2="126.43"/><line class="cls-1" x1="767.72" y1="15.38" x2="1302.98" y2="15.38"/><line class="cls-1" x1="731.11" y1="15.38" x2="819.19" y2="140.07"/><line class="cls-1" x1="399.71" y1="587.38" x2="303.39" y2="979.97"/><line class="cls-1" x1="5.9" y1="126.43" x2="365.8" y2="508.62"/><line class="cls-1" x1="584.26" y1="157.9" x2="387.69" y2="530.91"/><text class="cls-2" transform="translate(1182.44 851.37)">f<tspan class="cls-3" x="352.52" y="0">r</tspan><tspan x="712.17" y="0">eelancer</tspan></text></g></g></svg>