<svg xmlns="http://www.w3.org/2000/svg" viewBox="0 0 92 92"><defs><style>.cls-1{fill:#fff;}</style></defs><title>Asset 3</title><g id="Layer_2" data-name="Layer 2"><g id="Layer_1-2" data-name="Layer 1"><path class="cls-1" d="M6,0A6,6,0,0,0,0,6V66a6,6,0,0,0,6,6H34v4H15.81a2,2,0,0,0-1.37.75l-10,12a2,2,0,0,0-.24,2.12A2,2,0,0,0,6,92H86a2,2,0,0,0,1.8-1.13,2,2,0,0,0-.24-2.12l-10-12A2,2,0,0,0,76,76H58V72H86a6,6,0,0,0,6-6V6a6,6,0,0,0-6-6ZM6,4H86a2,2,0,0,1,2,2V66a2,2,0,0,1-2,2H6a2,2,0,0,1-2-2V6A2,2,0,0,1,6,4ZM8,8V64H84V8Zm4,4H80V60H12Zm22.56,6.56-16,16L17.19,36l1.37,1.44,16,16,2.88-2.88L22.88,36,37.44,21.44Zm22.88,0-2.88,2.88L69.13,36,54.56,50.56l2.88,2.88,16-16L74.81,36l-1.37-1.44ZM38,72H54v8H38ZM16.94,80H34v4H58V80H75.06l6.69,8H10.25Z"/></g></g></svg>